<svg xmlns="http://www.w3.org/2000/svg" xmlns:xlink="http://www.w3.org/1999/xlink" width="806" height="285" viewBox="0 0 806 285">
  <defs>
    <style>
      .cls-1 {
        fill: #e67e21;
        fill-rule: evenodd;
        filter: url(#filter);
      }
    </style>
    <filter id="filter" x="-3" y="-3" width="819" height="294" filterUnits="userSpaceOnUse">
      <feOffset result="offset" dy="11" in="SourceAlpha"/>
      <feGaussianBlur result="blur" stdDeviation="4"/>
      <feFlood result="flood" flood-opacity="0.18"/>
      <feComposite result="composite" operator="in" in2="blur"/>
      <feBlend result="blend" in="SourceGraphic"/>
    </filter>
  </defs>
  <path id="Repuso" class="cls-1" d="M131.591,86.168A87.374,87.374,0,0,1,85.57,106.554L91.8,88.975q3.3-9.4,9.277-25.024a71.545,71.545,0,0,1,3.723-8.362,13.8,13.8,0,0,0,1.648-6.775q0-3.782-4.15-7.446a16.118,16.118,0,0,0-4.273-2.625,14.616,14.616,0,0,0-5.737-1.038,10.366,10.366,0,0,0-6.348,2.319q-8.669,8.3-21.24,43.945L57.372,104.6q-22.339,64.334-40.649,77.637a4.808,4.808,0,0,0-1.831,4.151,6.826,6.826,0,0,0,2.563,5.126,9.713,9.713,0,0,0,3.052,2.015,10.194,10.194,0,0,0,4.089.793,12.239,12.239,0,0,0,4.456-.854q26.487-9.276,52.124-75.2a18.061,18.061,0,0,1,10.62,8.057,40.37,40.37,0,0,1,3.54,6.287q1.585,3.478,3.784,7.69t4.761,10.071l5.493,11.963q2.93,6.1,6.408,11.963a61.168,61.168,0,0,0,7.935,10.62,40.418,40.418,0,0,0,10.132,7.873q5.676,3.113,14.831,3.784a23.567,23.567,0,0,0,16.846-5.432,16.422,16.422,0,0,0,4.761-5.493,7.638,7.638,0,0,0,1.037-4.883q-0.429-1.951-1.586-2.014a23.916,23.916,0,0,0-4.944.794,18.6,18.6,0,0,1-7.325.244q-10.132-2.074-22.949-25.879l-9.765-17.456q-6.226-10.986-13.306-16.846a111.435,111.435,0,0,0,45.044-24.78q21.972-19.775,21.973-43.823,0-20.262-15.87-33.325A59.979,59.979,0,0,0,143,7.432a71.833,71.833,0,0,0-22.156-3.784,168.029,168.029,0,0,0-17.334.732Q69.577,8.043,54.93,20.616q-9.768,8.3-1.709,17.212a19.971,19.971,0,0,0,5,3.845A12.09,12.09,0,0,0,64.086,43.2q3.05,0,6.409-2.991a61.085,61.085,0,0,1,9.338-6.531Q100.461,21.472,120.6,21.471q32.1,0,32.105,24.292,0,22.585-21.118,40.405h0Zm67.627,97.778q10.863,10.743,28.808,10.742,30.4,0,45.776-15.381a17.879,17.879,0,0,0,3.663-11.23,10.907,10.907,0,0,0-1.648-5.92q-1.649-2.624-3.846-2.625t-5.188,2.991a38.749,38.749,0,0,1-7.751,5.8q-13.429,8.3-27.588,8.3a13.982,13.982,0,0,1-12.695-7.324,22.2,22.2,0,0,1-2.93-7.508,32.714,32.714,0,0,1-.732-7.629,22.954,22.954,0,0,1,.61-5.127,115.2,115.2,0,0,0,37.109-6.348,84.389,84.389,0,0,0,15.564-7.446,59.147,59.147,0,0,0,12.329-9.949,42.914,42.914,0,0,0,8.118-12.329,38.323,38.323,0,0,0,3.052-14.77,34.527,34.527,0,0,0-2.319-13.855q-6.959-17.212-27.832-17.212-17.824,0-35.279,13.062a94.535,94.535,0,0,0-14.953,14.221,109.969,109.969,0,0,0-12.024,17.212,98.128,98.128,0,0,0-8.179,18.8,79.575,79.575,0,0,0-3.54,20.325q-0.732,21,11.475,33.2h0Zm68.237-88.5q0,12.085-13.794,25.269a59.322,59.322,0,0,1-35.4,16.113q6.1-20.751,16.114-35.889Q246.212,83.36,259.032,83.36,267.455,83.36,267.455,95.445Zm82.275,99.243q15.624,0,33.2-12.695A105.448,105.448,0,0,0,398.68,167.65a104.357,104.357,0,0,0,13.062-18.006,98.341,98.341,0,0,0,8.911-20.691,75.108,75.108,0,0,0,3.3-21.789,60.6,60.6,0,0,0-2.441-18.433q-7.082-21.606-27.955-21.607-22.95,0-44.311,30.4,1.465-6.712,2.685-16.113,0.487-4.515-3.906-9.277a14.541,14.541,0,0,0-5.249-3.662,22.979,22.979,0,0,0-8.728-1.343A25.906,25.906,0,0,0,323,69.688a15.546,15.546,0,0,0-4.456,3.235,7.126,7.126,0,0,0-2.014,4.15q-0.246,2.26,1.221,3.113t3.174,2.014a10.575,10.575,0,0,1,3.051,3.418q1.342,2.26.672,7.69t-4.456,20.569l-3.906,15.259q-2.077,8.423-8.545,31.86-16.113,59.2-25.757,79.346-3.661,7.934-3.662,10.315a8.683,8.683,0,0,0,1.1,4.333q3.661,6.835,10.62,6.836a12.76,12.76,0,0,0,9.765-4.395q5-5.616,12.7-28.564,3.415-10.254,8.484-27.71t5.31-19.287Q334.1,194.688,349.73,194.688Zm5.493-81.482a132.772,132.772,0,0,1,11.353-14.16,73.328,73.328,0,0,1,10.986-9.888q5.247-3.722,10.071-3.723t7.141,4.883q2.317,4.884,2.32,13.672,0,16.236-7.691,34.3a101.4,101.4,0,0,1-8.362,15.686,78.011,78.011,0,0,1-10.376,12.878,51.652,51.652,0,0,1-11.474,8.728,24.616,24.616,0,0,1-11.9,3.235,10.151,10.151,0,0,1-9.033-4.577q-3.054-4.578-3.052-11.658a51.461,51.461,0,0,1,2.746-15.625,111.479,111.479,0,0,1,7.2-17.151A144.092,144.092,0,0,1,355.223,113.206ZM551.39,171.312a17.747,17.747,0,0,1-8.667,1.892q-5.616,0-5.615-9.277,0-2.074.611-7.569,2.316-15.99,32.1-78.125,1.832-3.782-3.3-7.568a15.916,15.916,0,0,0-5.249-2.624,24.951,24.951,0,0,0-7.141-.916q-4.092,0-8,5.249-1.71,2.077-27.588,47.851a213.518,213.518,0,0,1-13.427,20.02q-4.641,6.348-9.522,12.268t-9.4,10.437a66.488,66.488,0,0,1-8.3,7.2q-3.785,2.687-6.653,2.686t-3.967-1.4q-1.1-1.4-1.1-4.822t3.784-11.841l4.517-9.4q2.93-6.347,11.353-26.123,3.05-7.567,5.615-14.649t4.15-13.122a43.461,43.461,0,0,0,1.587-10.925,12.372,12.372,0,0,0-4.028-8.911,15.322,15.322,0,0,0-5.066-3.235A24.951,24.951,0,0,0,479,67.125a27.944,27.944,0,0,0-11.963,2.808,16.21,16.21,0,0,0-4.578,3.418,6.041,6.041,0,0,0-1.77,4.089,3.168,3.168,0,0,0,1.465,2.991,15.561,15.561,0,0,1,5.493,4.639q3.3,5.25-9.4,33.447l-6.592,14.649q-3.3,7.325-6.1,14.282a123.452,123.452,0,0,0-4.577,13.367,43.93,43.93,0,0,0-1.77,11.6,26.865,26.865,0,0,0,1.465,9.217q5,13.064,20.141,13.061,9.888,0,22.095-10.009a132.776,132.776,0,0,0,13.184-13q7.566-8.36,26.367-33.752-10.134,24.9-10.132,36.987a20.712,20.712,0,0,0,7.446,16.113q4.149,3.663,11.963,3.662a29.6,29.6,0,0,0,16.6-4.638q10.5-7.2,10.5-17.823a2.482,2.482,0,0,0-2.808-2.807Q554.808,169.42,551.39,171.312ZM582.152,187q9.156,7.57,24.9,7.568a48.729,48.729,0,0,0,29.786-9.887,38.124,38.124,0,0,0,10.131-10.8q3.906-6.285,3.907-15.625t-7.691-21.667a95.826,95.826,0,0,0-6.958-10.01q-3.784-4.761-7.019-9.4a64.484,64.484,0,0,1-5.432-9.278,25.6,25.6,0,0,1-2.2-11.047,14.128,14.128,0,0,1,4.761-10.8,16.481,16.481,0,0,1,5.371-2.991,24.479,24.479,0,0,1,7.751-1.038q4.7,0,8.972,4.028a14.266,14.266,0,0,1,3.3,4.761,15.159,15.159,0,0,1,1.221,6.1,20.7,20.7,0,0,1-.977,6.348,6.012,6.012,0,0,0,.611,5.432,6.884,6.884,0,0,0,4.516,2.99q6.593,1.345,13.184-3.784a18.531,18.531,0,0,0,7.324-15.38q0-9.276-8.3-16.479-10.134-8.909-28.2-8.911-20.631,0-33.813,12.573-11.6,11.109-11.6,24.78,0,16.481,14.648,36.011l6.958,9.766a74.738,74.738,0,0,1,5.494,8.606,18.668,18.668,0,0,1,2.2,8.972q0,4.884-4.395,8.423a12.882,12.882,0,0,1-4.272,2.319,18.815,18.815,0,0,1-5.615.732,12.161,12.161,0,0,1-6.348-1.831q-8.423-5-8.423-17.7,0-5-4.883-5.005-5.616,0-10.742,4.761a18.507,18.507,0,0,0-4.089,5.432,15.241,15.241,0,0,0-1.648,7.019q0,8.668,7.568,15.015h0Zm127.625,5.371a50.911,50.911,0,0,0,15.991,2.319,49.459,49.459,0,0,0,18.249-3.662q18.43-7.324,31.983-24.78a100.464,100.464,0,0,0,18.8-38.33q5.613-22.705-.733-38.7-8.912-22.093-34.057-22.095-19.167,0-36.988,13.672a87.746,87.746,0,0,0-14.953,14.893A102.273,102.273,0,0,0,696.471,114a100.861,100.861,0,0,0-7.446,20.263,81.229,81.229,0,0,0-2.5,20.752,50.431,50.431,0,0,0,3.052,17.762,33.729,33.729,0,0,0,8.057,12.39A31.8,31.8,0,0,0,709.777,192.369Zm19.592-83.618a101.957,101.957,0,0,1,9.888-14.282,54.926,54.926,0,0,1,10.253-9.7q5.127-3.6,9.1-3.6a11.05,11.05,0,0,1,6.164,1.465q5.493,3.662,5.493,17.09,0.245,15.26-7.2,34.912a139.833,139.833,0,0,1-7.934,17.334,97.086,97.086,0,0,1-9.644,14.648,53.617,53.617,0,0,1-10.559,10.193,18.962,18.962,0,0,1-11.047,3.845,8.484,8.484,0,0,1-8.118-4.822q-2.5-4.819-2.624-13.305a77.19,77.19,0,0,1,2.014-18.006,118.1,118.1,0,0,1,5.8-18.554A134.891,134.891,0,0,1,729.369,108.751Z"/>
</svg>
